<svg xmlns="http://www.w3.org/2000/svg" width="20" height="20" viewBox="0 0 20 20"><defs><style>.a{fill:#00a6d3;}.b{fill:#fff;}</style></defs><circle class="a" cx="10" cy="10" r="10"/><g transform="translate(5 5)"><path class="b" d="M2089.99,632.285v-3.179a1.023,1.023,0,0,1,1.023-1.024h.086a1.024,1.024,0,0,1,1.024,1.024v3.179h3.027a1.024,1.024,0,0,1,1.024,1.024h0a1.024,1.024,0,0,1-1.024,1.024h-3.027v3.222a1.024,1.024,0,0,1-1.024,1.024h-.086a1.023,1.023,0,0,1-1.023-1.024v-3.222h-3.028a1.024,1.024,0,0,1-1.023-1.024h0a1.024,1.024,0,0,1,1.023-1.024Z" transform="translate(-2085.938 -628.083)"/></g></svg>