<svg id="Group_3097" data-name="Group 3097" xmlns="http://www.w3.org/2000/svg" width="181.667" height="61.184" viewBox="0 0 181.667 61.184">
  <path id="Path_1285" data-name="Path 1285" d="M151.07,375.769H137.647V362.5l-5.573,2.18v29.286h5.573V380.408H151.07v13.556h5.573V362.512l-5.573,2.179Z" transform="translate(-132.074 -360.407)" fill="#fff"/>
  <path id="Path_1286" data-name="Path 1286" d="M389.647,394.042a8.484,8.484,0,0,0,.107,1.35c1.73-.642,3.475-1.261,5.244-1.839V381.779h6.241v-4.637H395v-7.135h0l-5.346,2.09v5.134l-2.542.135V381.6l2.542.133Z" transform="translate(-318.024 -365.882)" fill="#fff"/>
  <path id="Path_1287" data-name="Path 1287" d="M241.933,394.536c-6.823,0-10.346,5.218-10.346,11.683,0,6.912,4.548,11.593,11.415,11.593a19.745,19.745,0,0,0,7.669-1.649l-1.694-4.147a15.139,15.139,0,0,1-5.665,1.16c-3.3,0-5.618-1.606-5.975-5.039h14.4a21.789,21.789,0,0,0,.313-2.943C252.055,399,248.354,394.536,241.933,394.536Zm-4.594,9.409c.134-2.675,1.784-4.994,4.638-4.994,2.987,0,4.5,2.185,4.547,4.994Z" transform="translate(-204.632 -383.767)" fill="#fff"/>
  <path id="Path_1288" data-name="Path 1288" d="M329.132,414.983c0-.085.01-.838.01-1.719V401.806c0-5.175-3.567-7.27-8.339-7.27a22.086,22.086,0,0,0-8.784,1.918l1.828,4.058a16.631,16.631,0,0,1,6.2-1.338c1.337,0,3.745.179,3.745,2.052,0,3.88-13.823.8-13.823,9.81,0,5.216,5.708,6.777,9.988,6.777a19.81,19.81,0,0,0,3.3-.233Q326.143,416.218,329.132,414.983Zm-13.279-4.35c0-2.5,6.109-1.635,7.937-3.374v4.624c0,.311.018.919.018.919a12.331,12.331,0,0,1-3.809.553C318.083,413.355,315.853,412.952,315.853,410.633Z" transform="translate(-261.78 -383.767)" fill="#fff"/>
  <path id="Path_1289" data-name="Path 1289" d="M409.269,461.043a12.207,12.207,0,0,1-3.968.891,2.1,2.1,0,0,1-1.61-.536c-1.791.55-3.516,1.24-5.266,1.856.966,2.389,3.276,3.362,6.342,3.362a18.337,18.337,0,0,0,5.975-1.248Z" transform="translate(-326.276 -432.259)" fill="#fff"/>
  <path id="Path_1290" data-name="Path 1290" d="M581.92,404.266c1.21-.026,2.416-.045,3.613-.045.6,0,1.192.011,1.789.019a6.19,6.19,0,0,1,11.833.583q2.718.234,5.39.566a11.422,11.422,0,0,0-22.625-1.122Z" transform="translate(-460.068 -384.015)" fill="#fff"/>
  <path id="Path_1291" data-name="Path 1291" d="M662.876,396.579l3.708,10.453q3.233.466,6.4,1.07l-3.853-11.524Z" transform="translate(-519.095 -385.257)" fill="#fff"/>
  <path id="Path_1292" data-name="Path 1292" d="M534.617,449.335h5.352V438.44q-2.683.14-5.352.365Z" transform="translate(-425.578 -415.779)" fill="#fff"/>
  <path id="Path_1293" data-name="Path 1293" d="M681.049,447.791l2.753,7.735h6.333l1.463-4.94.414-1.4q-5.555-1.535-11.4-2.622l.434,1.224Z" transform="translate(-532.025 -421.704)" fill="#fff"/>
  <path id="Path_1294" data-name="Path 1294" d="M508.336,442.6v-1.653c-1.792.192-3.575.424-5.351.677v9.54h5.351Z" transform="translate(-402.514 -417.605)" fill="#fff"/>
  <path id="Path_1295" data-name="Path 1295" d="M455.826,371.836a10.585,10.585,0,0,1,5.129-1.649c2.229,0,3.745,1.606,3.745,4.058v2.629q2.661-.409,5.351-.73v-2.7c0-4.949-2.63-7.893-7.624-7.893a16.761,16.761,0,0,0-6.6,1.472V354.78l-5.349,2.093v22.9c1.77-.45,3.552-.878,5.349-1.267Z" transform="translate(-364.23 -354.78)" fill="#fff"/>
  <path id="Path_1296" data-name="Path 1296" d="M533.538,404.782c1.777-.175,3.561-.329,5.352-.444V400.2c0-.136-.046-.446-.046-.446a13.675,13.675,0,0,1,4.014-.58,11.374,11.374,0,0,1,2.943.444l1.606-4.591a17.236,17.236,0,0,0-4.1-.491,26.812,26.812,0,0,0-10.167,2.453,26.806,26.806,0,0,1,.4,3.345Z" transform="translate(-424.499 -383.767)" fill="#fff"/>
  <path id="Path_1297" data-name="Path 1297" d="M455.826,449.062c-1.8.364-3.578.766-5.349,1.192v6.826h5.349Z" transform="translate(-364.23 -423.523)" fill="#fff"/>
  <path id="Path_1298" data-name="Path 1298" d="M747.221,534.133c-1.193-.575-2.226-1.072-2.226-2.1,0-1.484,1.54-1.644,2.2-1.644a5.793,5.793,0,0,1,2.464.547l.166.066.312-2.058-.109-.039a9.079,9.079,0,0,0-2.909-.488c-2.7,0-4.444,1.488-4.444,3.79,0,2.346,1.762,3.174,3.317,3.9,1.313.617,2.446,1.149,2.446,2.434,0,1.5-1.489,2.048-2.491,2.048a8.225,8.225,0,0,1-2.732-.642l-.173-.072-.226,2.088.109.036a9.2,9.2,0,0,0,2.791.563c3.2,0,5.04-1.508,5.04-4.136C750.758,535.838,748.8,534.893,747.221,534.133Z" transform="translate(-577.279 -481.384)" fill="#fff"/>
  <path id="Path_1299" data-name="Path 1299" d="M598.776,438.746a6.258,6.258,0,0,1-6.13,5.439,6.4,6.4,0,0,1-6.323-6.393c-1.643-.053-3.29-.087-4.935-.087h-.26v.023a11.618,11.618,0,0,0,11.566,11.67,11.415,11.415,0,0,0,11.152-9.469c.03-.175.047-.352.07-.529q-2.546-.393-5.135-.7Z" transform="translate(-459.49 -415.243)" fill="#fff"/>
  <path id="Path_1300" data-name="Path 1300" d="M683.95,529.266h-4.1v13.69h4.1c4.63,0,7.285-2.538,7.285-6.959C691.235,532.034,688.24,529.266,683.95,529.266Zm-.019,11.717h-1.877V531.24h2.107a4.54,4.54,0,0,1,4.757,4.832C688.918,539.33,687.239,540.983,683.931,540.983Z" transform="translate(-531.473 -482.002)" fill="#fff"/>
  <path id="Path_1301" data-name="Path 1301" d="M745.264,464.346h0l.949,3.129h6.381l.039-.112.468-1.336q-4.016-1.665-8.257-3.072Z" transform="translate(-578.859 -433.652)" fill="#fff"/>
  <path id="Path_1302" data-name="Path 1302" d="M722.572,412.042l-5.593-15.463H711.9L707.6,408.5q2.533.524,5.011,1.139l1.775-5.988,2.125,7.017q5.463,1.533,10.653,3.514l6.208-17.6h-5.817Z" transform="translate(-551.701 -385.257)" fill="#fff"/>
  <path id="Path_1303" data-name="Path 1303" d="M481.275,540.414l-2.788-11.042-.027-.107h-2.948l-2.777,11.145-3.084-11.041-.029-.1h-2.411l4.108,13.59.031.1h2.789l2.846-11.351,2.829,11.351h2.693l4.161-13.506.056-.184h-2.335Z" transform="translate(-376.431 -482.002)" fill="#fff"/>
  <path id="Path_1304" data-name="Path 1304" d="M368.272,536.153a3.213,3.213,0,0,0,2.52-3.116c0-3.323-2.7-3.771-5.347-3.771H362.02v13.69h2.2V537h1.01c1.006,0,1.561,0,2.118,1.222l2.092,4.732h2.506l-2.633-5.545A2.6,2.6,0,0,0,368.272,536.153Zm-2.557-1.125h-1.491V531.24h1.7c1.618,0,2.546.669,2.546,1.837C368.473,534.3,367.442,535.028,365.715,535.028Z" transform="translate(-299.733 -482.002)" fill="#fff"/>
  <path id="Path_1305" data-name="Path 1305" d="M628.6,536.153a3.212,3.212,0,0,0,2.52-3.116c0-3.323-2.7-3.771-5.346-3.771h-3.426v13.69h2.2V537h1.011c1.005,0,1.559,0,2.117,1.222l2.054,4.647.038.084h2.5l-2.631-5.545A2.6,2.6,0,0,0,628.6,536.153Zm-2.556-1.125h-1.491V531.24h1.7c1.619,0,2.547.669,2.547,1.837C628.8,534.3,627.767,535.028,626.04,535.028Z" transform="translate(-489.543 -482.002)" fill="#fff"/>
  <path id="Path_1306" data-name="Path 1306" d="M420.307,542.956H428.1v-1.973h-5.589v-4.134h5.09v-1.974h-5.09V531.24H428.1v-1.974h-7.794Z" transform="translate(-342.232 -482.002)" fill="#fff"/>
  <path id="Path_1307" data-name="Path 1307" d="M557.5,529.266l-5.844,13.69h2.327l1.364-3.381h6.379l1.363,3.381h2.4l-5.785-13.69Zm-1.425,8.451,2.461-6.124L561,537.717Z" transform="translate(-438.005 -482.002)" fill="#fff"/>
</svg>
