<svg xmlns="http://www.w3.org/2000/svg" width="15.474" height="20" viewBox="0 0 15.474 20">
  <path id="Path_146" data-name="Path 146" d="M41.384,21.129a7.84,7.84,0,0,0-7.422,5.528c-1.11,3.694.908,6.871,3.007,9.722q.206.28.416.558c.448.595,1.1,1.446,1.936,2.455l1.192,1.344a1.163,1.163,0,0,0,1.743,0l1.191-1.344c.832-1.009,1.489-1.861,1.936-2.455q.209-.278.416-.558c2.1-2.851,4.117-6.027,3.007-9.722A7.84,7.84,0,0,0,41.384,21.129Zm0,10.524a2.659,2.659,0,1,1,2.659-2.659A2.659,2.659,0,0,1,41.383,31.653Z" transform="translate(-33.646 -21.129)" fill="#04141c"/>
</svg>
