<svg xmlns="http://www.w3.org/2000/svg" width="40" height="40" viewBox="0 0 40 40">
  <g id="Group_3844" data-name="Group 3844" transform="translate(20794 24623.5)">
    <g id="Component_167_1" data-name="Component 167 – 1" transform="translate(-20794 -24623.5)">
      <rect id="Rectangle_218" data-name="Rectangle 218" width="40" height="40" rx="5" fill="#00a6d3"/>
    </g>
    <path id="Icon_awesome-search" data-name="Icon awesome-search" d="M18.92,16.586l-3.735-3.735a.9.9,0,0,0-.637-.262h-.611a7.789,7.789,0,1,0-1.349,1.349v.611a.9.9,0,0,0,.262.637l3.735,3.735a.9.9,0,0,0,1.27,0l1.06-1.06A.9.9,0,0,0,18.92,16.586Zm-11.127-4a4.8,4.8,0,1,1,4.8-4.8A4.793,4.793,0,0,1,7.793,12.589Z" transform="translate(-20783.502 -24613.09)" fill="#fff"/>
  </g>
</svg>
